<svg xmlns="http://www.w3.org/2000/svg" width="33.067" height="31" viewBox="0 0 33.067 31">
  <defs>
    <style>
      .cls-1 {
        fill: #fff;
      }
    </style>
  </defs>
  <g id="computer" transform="translate(0 -16)">
    <g id="Grupo_303" data-name="Grupo 303" transform="translate(7.815 19.875)">
      <g id="Grupo_302" data-name="Grupo 302">
        <path id="Trazado_946" data-name="Trazado 946" class="cls-1" d="M137.469,76h-3.875a4.839,4.839,0,0,0-3.875,1.941A4.839,4.839,0,0,0,125.844,76h-3.875a.969.969,0,0,0-.969.969V88.594a.969.969,0,0,0,.969.969h5.813a.97.97,0,0,1,.969.969.969.969,0,0,0,1.938,0,.97.97,0,0,1,.969-.969h5.812a.969.969,0,0,0,.969-.969V76.969A.969.969,0,0,0,137.469,76ZM128.75,87.791a2.894,2.894,0,0,0-.969-.166h-4.844V77.938h2.906a2.91,2.91,0,0,1,2.906,2.906Zm7.75-.166h-4.844a2.894,2.894,0,0,0-.969.166V80.844a2.91,2.91,0,0,1,2.906-2.906H136.5Z" transform="translate(-121 -76)"/>
      </g>
    </g>
    <g id="Grupo_305" data-name="Grupo 305" transform="translate(0 16)">
      <g id="Grupo_304" data-name="Grupo 304">
        <path id="Trazado_947" data-name="Trazado 947" class="cls-1" d="M30.16,16H2.906A2.91,2.91,0,0,0,0,18.906V40.219a2.91,2.91,0,0,0,2.906,2.906H13.028l-.969,1.938H10.721a.969.969,0,0,0,0,1.938H22.346a.969.969,0,0,0,0-1.938H21.007l-.969-1.937H30.16a2.91,2.91,0,0,0,2.906-2.906V18.906A2.91,2.91,0,0,0,30.16,16ZM14.226,45.063l.969-1.937h2.678l.969,1.938Zm16.9-4.844a.97.97,0,0,1-.969.969H2.906a.97.97,0,0,1-.969-.969V39.25H31.129Zm0-2.906H1.938V18.906a.97.97,0,0,1,.969-.969H30.16a.97.97,0,0,1,.969.969Z" transform="translate(0 -16)"/>
      </g>
    </g>
  </g>
</svg>
