<?xml version="1.0" encoding="utf-8"?>
<!-- Generator: Adobe Illustrator 21.0.0, SVG Export Plug-In . SVG Version: 6.00 Build 0)  -->
<svg version="1.1" id="Capa_1" xmlns="http://www.w3.org/2000/svg" xmlns:xlink="http://www.w3.org/1999/xlink" x="0px" y="0px"
	 viewBox="0 0 76.7 76.7" style="enable-background:new 0 0 76.7 76.7;" xml:space="preserve">
<style type="text/css">
	.st0{fill:#3E80FF;}
</style>
<g>
	<g id="Zoom_2_">
		<g>
			<path class="st0" d="M75.5,68.7L58.2,52.1C62.5,46.8,65,40.2,65,33C65,15.7,50.4,1.7,32.5,1.7C14.6,1.7,0,15.7,0,33
				s14.6,31.2,32.5,31.2c7.7,0,14.8-2.6,20.4-7l17.3,16.6c0.7,0.7,1.7,1.1,2.7,1.1c1,0,1.9-0.4,2.7-1.1C77,72.4,77,70.1,75.5,68.7z
				 M7.5,33c0-13.2,11.2-24,25-24c13.8,0,25,10.8,25,24s-11.2,24-25,24C18.7,56.9,7.5,46.2,7.5,33z"/>
		</g>
	</g>
</g>
</svg>
